<svg height="512" viewBox="0 0 60 62" width="512" xmlns="http://www.w3.org/2000/svg"><g id="002---Disco-Ball"><path id="Shape" d="m46.86 40c3.29-1 5.14-2.09 5.14-3s-1.85-2.08-5.14-3c.1862767 1.9956626.1862767 4.0043374 0 6z"/><path id="Shape" d="m35.68 22.51c.5132428 2.5589302.8672559 5.1472338 1.06 7.75 2.6027662.1927441 5.1910698.5467572 7.75 1.06-.4107636-2.3171238-1.116501-4.5721227-2.1-6.71-2.1378773-.983499-4.3928762-1.6892364-6.71-2.1z"/><path id="Shape" d="m44.8 40.56c.2700354-2.3656522.2700354-4.7543478 0-7.12-2.6131654-.5704753-5.2629221-.9580816-7.93-1.16.1750118 3.1442332.1750118 6.2957668 0 9.44 2.6670779-.2019184 5.3168346-.5895247 7.93-1.16z"/><path id="Shape" d="m42.39 49.39c.983499-2.1378773 1.6892364-4.3928762 2.1-6.71-2.5589302.5132428-5.1472338.8672559-7.75 1.06-.1927441 2.6027662-.5467572 5.1910698-1.06 7.75 2.3171238-.4107636 4.5721227-1.116501 6.71-2.1z"/><path id="Shape" d="m25.14 41.86c3.2372181.1898786 6.4827819.1898786 9.72 0 .1898786-3.2372181.1898786-6.4827819 0-9.72-3.2372181-.1898786-6.4827819-.1898786-9.72 0-.1898786 3.2372181-.1898786 6.4827819 0 9.72z"/><path id="Shape" d="m25.28 30.13c3.1442332-.1750118 6.2957668-.1750118 9.44 0-.2019184-2.6670779-.5895247-5.3168346-1.16-7.93-2.3656522-.2700354-4.7543478-.2700354-7.12 0-.5704753 2.6131654-.9580816 5.2629221-1.16 7.93z"/><path id="Shape" d="m8 37c0 .94 1.85 2.08 5.14 3-.1900292-2.0155308-.1900292-4.0444692 0-6.06-3.29.98-5.14 2.12-5.14 3.06z"/><path id="Shape" d="m46.6 42.19c-.306841 1.9307966-.7922569 3.8289403-1.45 5.67 2.888831-1.7280092 5.1089286-4.3815544 6.3-7.53-1.530067.8257397-3.1601546 1.4508867-4.85 1.86z"/><path id="Shape" d="m8.55 33.67c1.530067-.8257397 3.1601546-1.4508867 4.85-1.86.306841-1.9307966.7922569-3.8289403 1.45-5.67-2.888831 1.7280092-5.1089286 4.3815544-6.3 7.53z"/><path id="Shape" d="m43.86 50.86c-1.0797812 2.2001535-2.5196067 4.2044177-4.26 5.93 4.4366383-2.1671498 8.0228502-5.7533617 10.19-10.19-1.7255823 1.7403933-3.7298465 3.1802188-5.93 4.26z"/><path id="Shape" d="m49.79 27.4c-2.1671498-4.4366383-5.7533617-8.0228502-10.19-10.19 1.7403933 1.7255823 3.1802188 3.7298465 4.26 5.93 2.2001535 1.0797812 4.2044177 2.5196067 5.93 4.26z"/><path id="Shape" d="m45.15 26.14c.6577431 1.8410597 1.143159 3.7392034 1.45 5.67 1.6898454.4091133 3.319933 1.0342603 4.85 1.86-1.1910714-3.1484456-3.411169-5.8019908-6.3-7.53z"/><path id="Shape" d="m35 13.53v-.53c.012846-1.5767914-.7308592-3.06420197-2-4 0 1.6568542-1.3431458 3-3 3s-3-1.3431458-3-3c-1.2590292.94427191-2 2.4262135-2 4v.53c3.2955244-.7100131 6.7044756-.7100131 10 0z"/><path id="Shape" d="m24.81 20.4c.4091133-1.6898454 1.0342603-3.319933 1.86-4.85-3.1484456 1.1910714-5.8019908 3.411169-7.53 6.3 1.8410597-.6577431 3.7392034-1.143159 5.67-1.45z"/><path id="Shape" d="m10.21 27.4c1.7255823-1.7403933 3.7298465-3.1802188 5.93-4.26 1.0797812-2.2001535 2.5196067-4.2044177 4.26-5.93-4.4366383 2.1671498-8.0228502 5.7533617-10.19 10.19z"/><path id="Shape" d="m33.33 58.45c3.1484456-1.1910714 5.8019908-3.411169 7.53-6.3-1.8410597.6577431-3.7392034 1.143159-5.67 1.45-.4091133 1.6898454-1.0342603 3.319933-1.86 4.85z"/><path id="Shape" d="m35.19 20.4c1.9307966.306841 3.8289403.7922569 5.67 1.45-1.7280092-2.888831-4.3815544-5.1089286-7.53-6.3.8257397 1.530067 1.4508867 3.1601546 1.86 4.85z"/><path id="Shape" d="m13.4 42.19c-1.6898454-.4091133-3.319933-1.0342603-4.85-1.86 1.1910714 3.1484456 3.411169 5.8019908 6.3 7.53-.6577431-1.8410597-1.143159-3.7392034-1.45-5.67z"/><path id="Shape" d="m19.14 52.15c1.7280092 2.888831 4.3815544 5.1089286 7.53 6.3-.8257397-1.530067-1.4508867-3.1601546-1.86-4.85-1.9307966-.306841-3.8289403-.7922569-5.67-1.45z"/><path id="Shape" d="m34.72 43.87c-3.1442332.1750118-6.2957668.1750118-9.44 0 .2019184 2.6670779.5895247 5.3168346 1.16 7.93 2.3656522.2700354 4.7543478.2700354 7.12 0 .5704753-2.6131654.9580816-5.2629221 1.16-7.93z"/><path id="Shape" d="m15.51 42.68c.4107636 2.3171238 1.116501 4.5721227 2.1 6.71 2.1378773.983499 4.3928762 1.6892364 6.71 2.1-.5132428-2.5589302-.8672559-5.1472338-1.06-7.75-2.6027662-.1927441-5.1910698-.5467572-7.75-1.06z"/><path id="Shape" d="m27 53.86c1 3.29 2.09 5.14 3 5.14s2.08-1.85 3-5.14c-1.9956626.1862767-4.0043374.1862767-6 0z"/><path id="Shape" d="m20.4 56.79c-1.7403933-1.7255823-3.1802188-3.7298465-4.26-5.93-2.2001535-1.0797812-4.2044177-2.5196067-5.93-4.26 2.1671498 4.4366383 5.7533617 8.0228502 10.19 10.19z"/><path id="Shape" d="m15.2 40.56c2.6131654.5704753 5.2629221.9580816 7.93 1.16-.1750118-3.1442332-.1750118-6.2957668 0-9.44-2.6670779.2019184-5.3168346.5895247-7.93 1.16-.2700354 2.3656522-.2700354 4.7543478 0 7.12z"/><path id="Shape" d="m15.51 31.32c2.5589302-.5132428 5.1472338-.8672559 7.75-1.06.1927441-2.6027662.5467572-5.1910698 1.06-7.75-2.3171238.4107636-4.5721227 1.116501-6.71 2.1-.983499 2.1378773-1.6892364 4.3928762-2.1 6.71z"/><path id="Shape" d="m33 20.14c-1-3.29-2.09-5.14-3-5.14s-2.08 1.85-3 5.14c1.9956626-.1862767 4.0043374-.1862767 6 0z"/><path id="Shape" d="m30 10c.5522847 0 1-.44771525 1-1v-6c0-.55228475-.4477153-1-1-1s-1 .44771525-1 1v6c0 .55228475.4477153 1 1 1z"/><path id="Shape" d="m5 10c4.07 0 5 6.08 5 6.14 0 .5522847.4477153 1 1 1s1-.4477153 1-1c0-.06.92-6.14 5-6.14.5522847 0 1-.44771525 1-1s-.4477153-1-1-1c-4.07 0-5-6.08-5-6.14 0-.55228475-.4477153-1-1-1s-1 .44771525-1 1c0 .06-.91 6.14-5 6.14-.55228475 0-1 .44771525-1 1s.44771525 1 1 1z"/><path id="Shape" d="m59 53.75c-2.83 0-3.5-4.35-3.51-4.39 0-.5522847-.4477153-1-1-1s-1 .4477153-1 1c0 0-.68 4.39-3.51 4.39-.5522847 0-1 .4477153-1 1s.4477153 1 1 1c2.83 0 3.5 4.35 3.51 4.39 0 .5522847.4477153 1 1 1s1-.4477153 1-1c0 0 .68-4.39 3.51-4.39.5522847 0 1-.4477153 1-1s-.4477153-1-1-1z"/><path id="Shape" d="m3 22c0 .5522847.44771525 1 1 1s1-.4477153 1-1v-2h2c.55228475 0 1-.4477153 1-1s-.44771525-1-1-1h-2v-2c0-.5522847-.44771525-1-1-1s-1 .4477153-1 1v2h-2c-.55228475 0-1 .4477153-1 1s.44771525 1 1 1h2z"/></g></svg>