<svg height="512" viewBox="0 0 60 59" width="512" xmlns="http://www.w3.org/2000/svg"><g id="015---Dollar-Necklace" transform="translate(-1)"><path id="Shape" d="m59.6 1-1.51-.75c-1.3693624-.60054441-2.9698233-.03644755-3.66 1.29-.56 1-1.19 2-1.85 3-.8295217 1.14783634-.6752312 2.73359908.36 3.7-.38.48-.76.93-1.15 1.37-1.1339908-.84881734-2.721676-.72471256-3.71.29-.84.82-1.72 1.6-2.62 2.33-1.1178681.865398-1.4290329 2.4212218-.73 3.65l-.72.48c-.880648-1.1061186-2.4408188-1.3959864-3.66-.68-1.0348067.5824011-2.09962 1.1098008-3.19 1.58-1.3258096.5325759-2.0495454 1.9672002-1.69 3.35-.55.19-1.09.37-1.65.54-1.5589761-1.5442789-4.0710239-1.5442789-5.63 0-.56-.1666667-1.11-.3466667-1.65-.54.3536023-1.3849768-.3734259-2.8176501-1.7-3.35-1.09038-.4701992-2.1551933-.9975989-3.19-1.58-1.2191812-.7159864-2.779352-.4261186-3.66.68l-.72-.48c.6990329-1.2287782.3878681-2.784602-.73-3.65-.9-.73-1.78-1.51-2.62-2.33-.988324-1.01471256-2.5760092-1.13881734-3.71-.29-.39-.43-.77-.89-1.15-1.37 1.0366971-.96977754 1.1909073-2.5589994.36-3.71-.66836014-.96718526-1.28586414-1.9685431-1.85-3-.69365087-1.32290181-2.29601929-1.8789149-3.66-1.27l-1.5.74c-.6859933.37666977-1.18382722 1.02235483-1.37363625 1.78159094-.18980902.7592361-.05439559 1.563233.37363625 2.21840906.68 1.22 1.42 2.43 2.21 3.58.80626795 1.31903911 2.52658468 1.7390645 3.85.94.42.52.84 1 1.27 1.51-.98396741 1.1521597-.86854633 2.8790366.26 3.89 1 1 2.05 1.91 3.13 2.78.5530914.5120855 1.2892842.7795503 2.0420955.7419097s1.4586525-.377207 1.9579045-.9419097l.82.55c-.3295696.6731265-.3765796 1.4500189-.1305795 2.1579733.246.7079543.7646234 1.2883004 1.4405795 1.6120267 1.2145577.6886016 2.4627824 1.3160515 3.74 1.88.6655908.342701 1.440135.4066781 2.1529354.1778316.7128004-.2288464 1.3053516-.731733 1.6470646-1.3978316.44.16.88.31 1.33.45-.21.77-.16.48-.16 6.27-1.5466407.8252566-2.7511421 2.1714641-3.4 3.8h.43c.5522847 0 1 .4477153 1 1s-.4477153 1-1 1c-.2766457.0051205-.5517854.0420295-.82.11l-.15.06c-.1765256 2.0163865.4661627 4.0189361 1.7831189 5.556012 1.3169561 1.5370759 3.1972729 2.4792338 5.2168811 2.613988v9.56c-2.5768967-.2837086-4.4604117-2.5660855-4.25-5.15.0190174-.3598187-.1065964-.7123087-.3488809-.9790096-.2422846-.2667008-.5811322-.4254783-.9411191-.4409904-.7664736-.051625-1.4313772.5240299-1.49 1.29-.2618389 3.4976763 1.9418366 6.7075584 5.3 7.72.3854596.1192024.6615249.4583683.7.86 0 1.1045695.8954305 1.9999999 2 1.9999999s2-.8954304 2-1.9999999c.042283-.3978545.3176363-.732212.7-.85 3.7775796-1.1584423 6.0172673-5.0396945 5.13-8.89-.5586086-.3124142-1.1900609-.4711399-1.83-.46-.5522847 0-1-.4477153-1-1s.4477153-1 1-1c.2319484-.0057118.462898-.0324885.69-.08-1.3050712-1.8938374-3.3966397-3.095846-5.69-3.27v-9.56c2.5783974.288718 4.4607027 2.5740581 4.25 5.16-.0190031.3588328.1069093.7102628.3494656.9753825.2425564.2651197.5814306.4217123.9405344.4346175.760653.0398901 1.4117267-.539833 1.46-1.3.2023827-2.9630503-1.3674268-5.7651603-4-7.14 0-5.57.06-5.5-.16-6.29.45-.14.89-.29 1.33-.45.3395536.6760387.9373541 1.1866055 1.6581888 1.4162186.7208348.2296132 1.5038033.1588736 2.1718112-.1962186 1.297587-.5621252 2.5658776-1.1895953 3.8-1.88.6759561-.3237263 1.1945795-.9040724 1.4405795-1.6120267.2460001-.7079544.1989901-1.4848468-.1305795-2.1579733l.82-.55c.499252.5647027 1.2050932.9042691 1.9579045.9419097s1.4890041-.2298242 2.0420955-.7419097c1.07-.87 2.07-1.81 3.07-2.78 1.1478634-1.0138406 1.2639082-2.7634398.26-3.92.43-.49.85-1 1.27-1.51 1.3243.7932499 3.0402674.37428648 3.85-.94.79-1.16 1.53-2.36 2.2-3.58.4254827-.64878379.5615945-1.4454402.3756543-2.19868796-.1859403-.75324775-.6771381-1.39505192-1.3556543-1.77131204zm-51.89 5.78c-1.49 1.13-1.42 1.15-1.71 1.1-.2961591-.06608002-.55463468-.24557694-.72-.5-.76-1.09-1.47-2.24-2.12-3.38-.22-.42-.23-1 .12-1.19 2.82-1.4 1.62-1.31 4.49 2.86.26268954.3322174.2369697.80803445-.06 1.11zm7.84 8.09c-1.12 1.54-1 1.5-1.33 1.55-.304003.0189342-.6039638-.0774818-.84-.27-1-.84-2-1.73-3-2.66-.229692-.2000426-.3670887-.4856831-.38-.79 0-.3.1-.32.76-.93s.67-.73 1-.73c.69 0 .65.5 3.44 2.75.3831312.2114437.5362823.6840242.35 1.08zm9.07 5.21c-.63 1.66-.59 1.71-.87 1.83-.2942655.1233371-.6257345.1233371-.92 0 .1 0-1.21-.45-3.63-1.8-.2740343-.14039-.4796271-.3856586-.57-.68-.08-.3 0-.25.93-1.8.2760607-.3344462.7613368-.4037714 1.12-.16 1.08.6 2.22 1.16 3.36 1.66.3971096.1353898.6410252.5349068.58.95zm5.38 20.49c-2.412446-.2718505-4.2358652-2.3122853-4.2358652-4.74s1.8234192-4.4681495 4.2358652-4.74zm6.26 7.58c.0125466 2.4412876-1.8312267 4.49281-4.26 4.74v-9.48c2.4197827.2648043 4.2540759 2.3057785 4.26 4.74zm-3.26-19.81c-.28-.26-.26-.43-.59-.76-.4490148-.4479301-1.0838753-.6563368-1.7110076-.5616753-.6271323.0946614-1.1721943.4811697-1.4689924 1.0416753-.0566547.1081179-.1349437.2034263-.23.28v-4.34c0-.7145312.3811978-1.3747853 1-1.7320509.6188021-.3572656 1.3811979-.3572656 2 0 .6188022.3572656 1 1.0175197 1 1.7320509zm10.37-8.95c-.0903729.2943414-.2959657.53961-.57.68-2.44 1.36-3.73 1.8-3.63 1.8-.2942655.1233371-.6257345.1233371-.92 0-.28-.12-.22-.12-.87-1.82-.0880919-.4321619.1611392-.8618707.58-1 1.14-.5 2.28-1.06 3.36-1.66.3573392-.2413153.8387531-.1768402 1.12.15.97 1.6 1.01 1.55.93 1.85zm8.23-5.9c-1 .93-2 1.82-3 2.66-.35.28-.95.41-1.18.08l-1-1.35c-.2037504-.3765035-.0917595-.8460035.26-1.09 2.8-2.26 2.75-2.75 3.44-2.75.32 0 .36.09 1 .7s.78.61.78 1c-.002257.2788051-.109355.5465501-.3.75zm7.23-9.49c-.6427116 1.16773252-1.3435922 2.3024916-2.1 3.4-.1653653.25442306-.4238409.43391998-.72.5-.31 0-.26 0-1.71-1.09-.3058599-.30070707-.3360376-.78354934-.07-1.12.7-1 1.35-2.08 2-3.16.1787028-.37450823.5993423-.56800242 1-.46 1.68.83 1.65.76 1.75 1.05.0728954.30148817.0186572.61968557-.15.88z"/><path id="Shape" d="m21 34c-.9029731-.7178854-1.622692-1.639811-2.1-2.69-.4855342 1.0535665-1.2158162 1.9758475-2.13 2.69.9023677.7160272 1.6192082 1.6386592 2.09 2.69.4860306-1.0560825 1.2202281-1.9789757 2.14-2.69z"/><path id="Shape" d="m43 48.52c.5668122-1.4005098 1.5077711-2.6182213 2.72-3.52-1.2118737-.9147222-2.1521054-2.1418628-2.72-3.55-.5749133 1.4152757-1.5301418 2.6439209-2.76 3.55 1.2447348.8778618 2.2044055 2.1017896 2.76 3.52z"/></g></svg>