<svg height="512pt" viewBox="-1 0 512 512" width="512pt" xmlns="http://www.w3.org/2000/svg" xmlns:xlink="http://www.w3.org/1999/xlink"><linearGradient id="lg1"><stop offset="0" stop-color="#008bd9"/><stop offset=".4944" stop-color="#923ba5"/><stop offset="1" stop-color="#ffa021"/></linearGradient><linearGradient id="linear0" gradientTransform="matrix(.847437 0 0 -.847437 -.697673 510.15683)" gradientUnits="userSpaceOnUse" x1="211.9339" x2="427.9738" xlink:href="#lg1" y1="119.5256" y2="335.5655"/><linearGradient id="linear1" gradientTransform="matrix(.847437 0 0 -.847437 -.697673 510.15683)" gradientUnits="userSpaceOnUse" x1="176.6431" x2="392.683" xlink:href="#lg1" y1="154.8163" y2="370.8563"/><linearGradient id="linear2" gradientTransform="matrix(.847437 0 0 -.847437 -.697673 510.15683)" gradientUnits="userSpaceOnUse" x1="214.3011" x2="430.3411" xlink:href="#lg1" y1="117.1583" y2="333.1982"/><linearGradient id="linear3" gradientTransform="matrix(.847437 0 0 -.847437 -.697673 510.15683)" gradientUnits="userSpaceOnUse" x1="222.3366" x2="438.3765" xlink:href="#lg1" y1="109.1228" y2="325.1628"/><path d="m510.367188 502.085938-10.390626-41.558594c-8.859374-35.457032-40.578124-60.222656-77.132812-60.222656-1.238281 0-2.460938.289062-3.566406.84375l-30.226563 15.113281h-20.164062c10.457031-1.300781 20.542969-5.425781 29.261719-12.386719 14.808593-11.824219 22.714843-29.222656 22.011718-47.691406 27.09375-5.34375 47.28125-29.246094 47.28125-57.679688 0-9.3125-2.261718-18.410156-6.597656-26.707031 14.878906-10.972656 23.554688-28.035156 23.554688-47.011719 0-18.964844-8.664063-36.015625-23.527344-46.988281 4.320312-8.296875 6.570312-17.402344 6.570312-26.734375 0-28.433594-20.1875-52.332031-47.28125-57.675781.703125-18.46875-7.203125-35.867188-22.007812-47.691407-14.800782-11.816406-33.507813-15.679687-51.347656-10.914062-7.40625-16.871094-22.074219-29.054688-40.523438-33.253906-18.519531-4.230469-37.066406.460937-50.992188 12.445312-13.96875-11.992187-32.453124-16.640625-50.867187-12.460937-18.46875 4.183593-33.167969 16.378906-40.613281 33.273437-17.839844-4.777344-36.550782-.902344-51.355469 10.910156-14.804687 11.824219-22.710937 29.222657-22.007813 47.691407-27.09375 5.34375-47.28125 29.242187-47.28125 57.675781 0 9.316406 2.261719 18.414062 6.597657 26.710938-14.878907 10.972656-23.558594 28.035156-23.558594 47.011718 0 18.964844 8.667969 36.015625 23.527344 46.988282-4.316407 8.292968-6.566407 17.398437-6.566407 26.730468 0 28.433594 20.1875 52.335938 47.28125 57.679688-.703124 18.46875 7.203126 35.867187 22.007813 47.691406 8.722656 6.960938 18.808594 11.085938 29.261719 12.386719h-20.160156l-30.226563-15.113281c-1.105469-.554688-2.328125-.84375-3.566406-.84375-36.554688 0-68.273438 24.765624-77.132813 60.222656l-10.390625 41.558594c-.597656 2.382812-.058593 4.910156 1.453125 6.84375 1.511719 1.9375 3.828125 3.070312 6.285156 3.070312h79.785157c4.40625 0 7.976562-3.570312 7.976562-7.976562v-23.9375h15.957031v23.9375c0 4.40625 3.570313 7.976562 7.980469 7.976562h271.257813c4.40625 0 7.976562-3.570312 7.976562-7.976562v-23.9375h15.957032v23.9375c0 4.40625 3.574218 7.976562 7.980468 7.976562h79.78125c2.457032 0 4.773438-1.132812 6.285156-3.070312 1.511719-1.933594 2.050782-4.460938 1.453126-6.84375zm-403.335938-151.3125c.078125-.453126.117188-1.070313.117188-1.527344 0-4.242188-3.320313-7.746094-7.558594-7.96875-25.332032-1.339844-40.46875-22.800782-40.46875-42.773438 0-8.777344 2.769531-17.300781 8.011718-24.648437 1.476563-2.074219 1.753907-4.765625.953126-7.179688-.652344-1.984375-2.136719-3.636719-3.988282-4.597656-13.738281-7.625-21.933594-21.554687-21.933594-37.292969 0-15.792968 8.253907-29.761718 22.074219-37.371094.191407-.101562.617188-.371093.800781-.492187 1.800782-1.195313 3.042969-3.070313 3.441407-5.199219.394531-2.125-.09375-4.324218-1.347657-6.085937-5.242187-7.351563-8.011718-15.847657-8.011718-24.570313 0-19.972656 15.136718-41.433594 40.46875-42.773437 4.238281-.222657 7.558594-3.882813 7.558594-8.125 0-.460938-.039063-.917969-.117188-1.371094-2.714844-15.585937 3.035156-30.773437 15.378906-40.628906s28.417969-12.101563 42.613282-6.1875c2.480468 1.265625 5.429687 1.117187 7.796874-.335938 1.777344-1.085937 3.035157-2.828125 3.554688-4.800781 4.398438-15.160156 16.1875-26.28125 31.570312-29.769531 15.398438-3.484375 30.835938 1.480469 41.578126 13.597656 1.539062 1.617187 3.617187 2.296875 5.960937 2.433594 2.238281-.039063 4.386719-1.054688 5.867187-2.726563 10.484376-11.84375 25.957032-16.796875 41.382813-13.292968 15.320313 3.488281 27.058594 14.535156 31.449219 29.589843.476562 1.945313 1.707031 3.664063 3.417968 4.800781 2.214844 1.476563 5.121094 1.714844 7.574219.683594 14.585938-6.09375 30.671875-3.847656 43.015625 6.007813 12.347656 9.855469 18.097656 25.042969 15.378906 40.628906-.078124.453125-.117187 1.070313-.117187 1.527344 0 4.242187 3.320313 7.746093 7.558594 7.96875 25.335937 1.339843 40.472656 22.800781 40.472656 42.773437 0 8.769532-2.769531 17.292969-8.011719 24.648438-1.476562 2.074218-1.875 4.726562-1.078125 7.140625.730469 2.199219 2.371094 3.957031 4.484375 4.847656 13.515625 7.671875 21.5625 21.488281 21.5625 37.082031 0 15.792969-8.253906 29.761719-22.078125 37.371094-.1875.101562-.613281.371094-.796875.492188-1.804687 1.195312-3.046875 3.070312-3.445312 5.199218-.390625 2.125.09375 4.324219 1.351562 6.089844 5.242188 7.347656 8.011719 15.84375 8.011719 24.566406 0 19.972656-15.136719 41.433594-40.472656 42.773438-4.238281.222656-7.558594 3.886718-7.558594 8.128906 0 .457031.039063.914062.117187 1.367188 2.71875 15.585937-3.03125 30.773437-15.378906 40.628906-12.339844 9.855468-28.414062 12.101562-42.609375 6.1875-2.472656-1.269532-5.433593-1.113282-7.800781.335937-1.777344 1.089844-3.039062 2.835938-3.554688 4.816407-1.4375 4.984374-3.65625 9.519531-6.617187 13.519531h-24.4375v-33.128907c.863281-.589843 1.734375-1.160156 2.578125-1.78125.679688-.5 1.320312-1.039062 1.984375-1.558593 1.398437-1.089844 2.769531-2.210938 4.097656-3.386719.722657-.644531 1.425781-1.308594 2.132813-1.976562 1.222656-1.164063 2.402344-2.359376 3.554687-3.589844.652344-.699219 1.308594-1.394532 1.9375-2.113282.3125-.359374.65625-.6875.960938-1.050781.160156.035157.335937.019531.496093.050781 2.007813.410157 4.0625.664063 6.191407.664063 13.605469 0 25.679687-8.582031 29.9375-21.050781 1.308593-3.386719 1.972656-7.039063 1.972656-10.859375 0-1.589844-.144531-3.144531-.367187-4.675781-.074219-.5-.191407-.980469-.289063-1.472657-.199219-1.023437-.429687-2.03125-.726563-3.019531-.167968-.5625-.355468-1.109375-.550781-1.660156-.316406-.882813-.679687-1.746094-1.070312-2.589844-.257813-.558594-.503907-1.113281-.792969-1.652344-.429688-.804687-.917969-1.570312-1.414062-2.332031-.332032-.511719-.628907-1.042969-.988282-1.53125-.808594-1.09375-1.683594-2.136719-2.628906-3.117187-.5625-.59375-1.191406-1.117188-1.804688-1.667969-.480468-.429688-.953124-.871094-1.460937-1.273438-.652344-.511719-1.335937-.976562-2.03125-1.441406-.304687-.203125-.578125-.4375-.890625-.632813l14.417969-58.019531c.175781-.484375.421875-.9375.503906-1.464843.300781-1.949219 7.027344-48.179688-21.363281-81.277344-18.003906-20.984375-45.683594-31.625-82.261719-31.625-36.574219 0-64.253906 10.640625-82.257813 31.625-28.390624 33.097656-21.664062 79.328125-21.363281 81.277344.082031.527343.328125.980468.503907 1.464843l14.414062 58.019531c-.449219.28125-.855469.621094-1.292969.921876-.429687.296874-.859375.585937-1.273437.902343-.894532.6875-1.734375 1.425781-2.542969 2.199219-.289063.273438-.597656.523438-.875.804688-1.050781 1.078124-2.023437 2.21875-2.90625 3.429687-.183594.25-.328125.523437-.503906.78125-.675781.988281-1.308594 2-1.871094 3.058594-.238281.457031-.445313.925781-.667969 1.394531-.429687.917969-.820312 1.851562-1.164062 2.8125-.183594.515625-.359375 1.027344-.519532 1.554688-.300781 1.011718-.539062 2.039062-.742187 3.085937-.09375.480469-.210937.953125-.28125 1.441406-.226563 1.535157-.371094 3.089844-.371094 4.679688 0 13.605469 8.582031 25.679687 21.050781 29.9375 1.519532.585937 3.117188 1.007812 4.75 1.332031.582032.117188 1.183594.175781 1.78125.257812 1.097657.152344 2.195313.257813 3.316407.292969.34375.011719.667969.089844 1.015625.089844.28125 0 .550781-.078125.832031-.085937 1.746094-.042969 3.488281-.203126 5.21875-.539063.183594-.035156.371094-.039063.550781-.078125.015625 0 .03125 0 .042969-.003906.082031.097656.167969.175781.25.273437 1.484375 1.75 2.984375 3.40625 4.539063 4.957031 3.753906 3.757813 8.015624 7.070313 12.5 10.113282v33.234375h-24.441407c-2.929687-3.960938-5.132812-8.441407-6.570312-13.367188-.476563-1.945312-1.707031-3.664062-3.417969-4.800781-2.21875-1.472656-5.117188-1.710938-7.578125-.683594-14.585937 6.089844-30.667969 3.855469-43.015625-6.003906-12.339844-9.859375-18.089844-25.046875-15.375-40.632812zm247.535156 65.488281h-8.554687c.242187-.507813.5625-.960938.792969-1.476563 2.570312.6875 5.164062 1.144532 7.761718 1.476563zm-14.632812-70.390625c-.125.171875-.242188.347656-.371094.511718-2.90625 3.703126-7.410156 6.007813-12.355469 6.039063-.261719-.003906-.523437-.027344-.785156-.042969-.578125-.027344-1.152344-.058594-1.703125-.144531-.972656-.171875-1.957031-.425781-2.945312-.792969-.183594-.078125-.363282-.148437-.5-.203125l-.621094-.273437c-5.773438-2.378906-9.503906-8.0625-9.503906-14.484375 0-8.800781 7.15625-15.957031 15.957031-15.957031 1.703125 0 3.242187.273437 4.621093.753906.160157.050781.316407.066406.480469.125 6.492188 2.128906 10.855469 8.1875 10.855469 15.078125 0 1.839843-.304688 3.554687-1.007812 5.398437-.5 1.460938-1.25 2.78125-2.121094 3.992188zm-84.632813-145.019532c-50.136719 0-77.367187 23.113282-88.515625 35.769532-.105468-14.070313 2.332032-38.953125 18.441406-57.664063 14.84375-17.238281 38.421876-25.976562 70.078126-25.976562 31.652343 0 55.230468 8.738281 70.074218 25.976562 16.109375 18.710938 18.546875 43.59375 18.441406 57.664063-11.152343-12.65625-38.382812-35.769532-88.519531-35.769532zm77.210938 47.0625c-5.3125 12.703126-16.132813 21.90625-29.851563 25.015626-15.425781 3.472656-30.84375-1.488282-41.71875-13.734376-1.554687-1.558593-3.839844-2.488281-5.917968-2.296874-2.203126.066406-4.3125 1.078124-5.769532 2.722656-10.492187 11.839844-25.960937 16.808594-41.386718 13.296875-13.695313-3.121094-24.484376-12.304688-29.761719-24.964844 8.378906-9.816406 31.789062-31.148437 77.199219-31.148437 45.621093 0 68.859374 21.25 77.207031 31.109374zm-153.84375 73.394532c1.425781-.519532 3.050781-.785156 4.832031-.785156 8.796875 0 15.953125 7.15625 15.953125 15.957031 0 1.839843-.300781 3.554687-1.007813 5.398437-1.425781 4.175782-4.53125 7.515625-8.699218 9.25-3.535156 1.578125-7.628906 1.835938-11.648438.296875-6.3125-2.15625-10.554687-8.164062-10.554687-14.945312 0-6.894531 4.363281-12.949219 11.125-15.171875zm26.222656 38.890625c.488281-.4375.917969-.933594 1.375-1.398438.257813-.261719.519531-.511719.769531-.78125 1.261719-1.382812 2.390625-2.867187 3.382813-4.449219.195312-.316406.371093-.644531.558593-.96875.96875-1.679687 1.832032-3.421874 2.460938-5.261718 1.308594-3.386719 1.972656-7.039063 1.972656-10.859375 0-2.265625-.253906-4.46875-.703125-6.597657-.019531-.085937-.058593-.164062-.074219-.246093-2.324218-10.574219-9.910156-19.128907-19.859374-22.914063-.199219-.074218-.410157-.113281-.613282-.1875-1.691406-.605468-3.421875-1.105468-5.230468-1.417968-.777344-.140626-1.574219-.160157-2.363282-.242188-1.027344-.097656-2.019531-.308594-3.066406-.308594-.332031 0-.632812.070313-.964844.078125-.230468.007813-.449218-.050781-.683594-.039062l-8.554687-34.425781c7.925781 9.039062 18.621094 15.472656 31.027344 18.296874 18.550781 4.21875 37.160156-.476562 51-12.441406 13.964843 11.988282 32.433593 16.617188 50.863281 12.457032 12.445312-2.824219 23.183594-9.277344 31.136719-18.363282l-8.570313 34.476563c-.546875-.027344-1.09375-.039063-1.648437-.039063-17.59375 0-31.910157 14.316406-31.910157 31.914063 0 2.078125.261719 4.097656.640626 6.082031.097656.511719.214843 1.011719.335937 1.515625.433594 1.785156.984375 3.519531 1.699219 5.179687.0625.148438.105468.308594.171875.457032.859375 1.917968 1.929687 3.703125 3.136719 5.390625.113281.164062.238281.3125.359374.472656 1.234376 1.660156 2.605469 3.203125 4.136719 4.574219-.332031.355468-.6875.695312-1.03125 1.042968-1.523437 1.550782-3.121093 3.03125-4.785156 4.433594-.621094.523438-1.242187 1.054688-1.882813 1.554688-2.21875 1.738281-4.503906 3.390625-6.910156 4.832031-5.996094 3.625-12.355468 6.265625-18.921875 7.859375-11.203125 2.757812-22.445312 2.765625-33.710937-.007812-3.269532-.789063-6.492188-1.847657-9.652344-3.160157-3.152344-1.3125-6.242188-2.878906-9.238281-4.691406-.003907-.003906-.003907-.003906-.007813-.003906-4.914062-2.960938-9.390625-6.453125-13.320312-10.378907-.449219-.449218-.882813-.964843-1.324219-1.433593zm18.5 31.542969c.183594.074218.378906.109374.5625.183593 3.507813 1.386719 7.070313 2.5625 10.691406 3.441407 6.847657 1.6875 13.796875 2.546874 20.660157 2.546874 6.859374 0 13.808593-.859374 20.625-2.539062 3.632812-.882812 7.207031-2.058594 10.714843-3.449219.1875-.074219.382813-.109375.570313-.183593v24.519531h-63.824219zm-59.589844 23.042968c.230469.515625.550781.96875.792969 1.476563h-8.539062c2.589843-.332031 5.179687-.789063 7.746093-1.476563zm15.390625 17.433594h194.230469c-14.992187 12.898438-48.84375 31.910156-118.121094 31.910156-69.273437 0-103.125-19.011718-118.117187-31.910156zm251.632813 63.824219v-23.933594c0-4.40625-3.574219-7.980469-7.980469-7.980469h-31.914062c-4.402344 0-7.976563 3.574219-7.976563 7.980469v23.933594h-255.300781v-23.933594c0-4.40625-3.574219-7.980469-7.980469-7.980469h-31.914063c-4.402343 0-7.976562 3.574219-7.976562 7.980469v23.933594h-61.585938l7.914063-31.644531c6.933594-27.746094 31.378906-47.304688 59.820313-48.109376l28.109374 14.054688c6.875 10.542969 39.292969 49.742188 141.261719 49.742188s134.386719-39.199219 141.261719-49.742188l28.113281-14.054688c28.441407.804688 52.886719 20.363282 59.820313 48.109376l7.910156 31.644531zm0 0" fill="url(#linear0)"/><path d="m215.410156 296.589844h15.957032v15.953125h-15.957032zm0 0" fill="url(#linear1)"/><path d="m279.238281 296.589844h15.953125v15.953125h-15.953125zm0 0" fill="url(#linear2)"/><path d="m255.300781 362.332031c10.710938 0 21.421875-4.078125 29.578125-12.234375l-11.285156-11.28125c-10.085938 10.082032-26.496094 10.082032-36.585938 0l-11.28125 11.28125c8.152344 8.15625 18.867188 12.234375 29.574219 12.234375zm0 0" fill="url(#linear3)"/></svg>