<svg height="512" viewBox="0 0 58 58" width="512" xmlns="http://www.w3.org/2000/svg"><g id="026---Target"><path id="Shape" d="m12 29c0 9.3888407 7.6111593 17 17 17s17-7.6111593 17-17-7.6111593-17-17-17-17 7.6111593-17 17zm25 0c0 4.418278-3.581722 8-8 8s-8-3.581722-8-8 3.581722-8 8-8 8 3.581722 8 8z"/><circle id="Oval" cx="29" cy="29" r="6"/><path id="Shape" d="m29 58c16.0162577 0 29-12.9837423 29-29s-12.9837423-29-29-29-29 12.9837423-29 29 12.9837423 29 29 29zm19-29c0 10.4934102-8.5065898 19-19 19s-19-8.5065898-19-19 8.5065898-19 19-19c5.0391133 0 9.8718377 2.00178 13.4350288 5.5649712 3.5631912 3.5631911 5.5649712 8.3959155 5.5649712 13.4350288zm-20-26h1c.5522847 0 1 .44771525 1 1s-.4477153 1-1 1h-1c-.5522847 0-1-.44771525-1-1s.4477153-1 1-1zm-24 27c-.55228475 0-1-.4477153-1-1 .03506252-12.3401561 8.7078706-22.9694562 20.79-25.48.5522847-.11321836 1.0917816.24271526 1.205.795.1132184.55228475-.2427153 1.09178162-.795 1.205-11.1443578 2.30624563-19.15256205 12.0996121-19.2 23.48 0 .2652165-.10535684.5195704-.29289322.7071068s-.44189029.2928932-.70710678.2928932z"/></g></svg>