<?xml version="1.0" encoding="UTF-8"?>
<svg xmlns="http://www.w3.org/2000/svg" xmlns:xlink="http://www.w3.org/1999/xlink" width="512" height="512" viewBox="0 0 55 56" version="1.1"><!-- Generator: Sketch 51.3 (57544) - http://www.bohemiancoding.com/sketch --><title>002 - Love</title><desc>Created with Sketch.</desc><defs/><g id="Page-1" stroke="none" stroke-width="1" fill="none" fill-rule="evenodd"><g id="002---Love" transform="translate(0.000000, -1.000000)" fill="#000000" fill-rule="nonzero"><path d="M33.8,17.057 C32.5152685,17.2820574 31.4073405,18.0897368 30.8,19.244 C30.621624,19.5543541 30.2909632,19.7456919 29.933,19.7456919 C29.5750368,19.7456919 29.244376,19.5543541 29.066,19.244 C28.4588959,18.0895325 27.3508537,17.2817697 26.066,17.057 C25.8399748,17.019068 25.611186,17.0000023 25.382,17 C24.4983272,16.9853733 23.6380683,17.284409 22.954,17.844 C21.423,19.172 21.508,21.997 23.165,24.874 C24.141,26.688 26.588,28.838 29.933,30.84 C33.278,28.84 35.725,26.69 36.688,24.899 C38.359,21.999 38.443,19.172 36.913,17.844 C36.0383152,17.1431363 34.9026769,16.8560347 33.8,17.057 Z" id="Shape"/><path d="M0.6,34.735 C0.861016404,34.9170713 1.13661917,35.0772821 1.424,35.214 C2.277,35.65 3.446,36.248 3.686,37.468 C3.82918406,38.2237094 3.73595159,39.0051861 3.419,39.706 C3.245,40.076 3.065,40.396 2.908,40.672 C2.859,40.758 2.808,40.854 2.757,40.941 C3.172,41.275 3.738,41.699 3.978,41.875 C4.19568419,42.0363089 4.33859797,42.2790429 4.37403559,42.5476525 C4.40947321,42.8162621 4.33440129,43.087755 4.166,43.3 C4.01761396,43.493007 3.88833948,43.6999801 3.78,43.918 C3.849,43.958 3.918,43.998 3.988,44.037 C4.87254397,44.4174365 5.54781232,45.1638818 5.838,46.082 C5.98493135,46.7872637 5.95538984,47.5179007 5.752,48.209 C5.706,48.418 5.659,48.627 5.632,48.836 C5.57367075,49.4411271 5.65403967,50.0515889 5.867,50.621 C6.08924005,51.5418186 6.99404705,52.1269975 7.925,51.952 C10.8392719,51.2514045 13.7107073,50.3832961 16.525,49.352 L16.531,49.352 C17.575,48.998 18.52,48.667 19.264,48.407 C19.955,48.166 20.476,47.984 20.747,47.897 C24.905,46.582 25.747,45.081 25.724,44.052 C25.7110213,43.4997153 26.1482153,43.0414787 26.7005,43.0285 C27.2527847,43.0155213 27.7110213,43.4527153 27.724,44.005 C27.782,46.497 25.64,48.448 21.355,49.805 C21.097,49.888 20.593,50.064 19.924,50.297 L19.024,50.613 C20.6721626,52.4422408 21.8742417,54.6283681 22.536,57 L45.218,56.937 L45.151,56.837 C44.8629147,56.4221101 44.6039597,55.987734 44.376,55.537 C43.8786739,54.5263955 43.4636619,53.4773282 43.135,52.4 C42.5282684,50.3530291 42.1072324,48.2555471 41.877,46.133 C41.4831884,42.7875341 41.9892651,39.3975796 43.343,36.313 C44.141408,34.6438155 45.1288779,33.0718493 46.286,31.628 C46.866,30.846 47.466,30.038 47.986,29.217 C49.1534218,27.4118492 49.8660857,25.3507167 50.063,23.21 C46.8403687,26.1499088 43.2970635,28.71774 39.5,30.865 C39.1905989,31.0436328 38.8094011,31.0436328 38.5,30.865 C37.563,30.325 36.625,29.742 35.7,29.141 C34.0726877,30.551841 32.3105359,31.7991805 30.439,32.865 C30.1295989,33.0436328 29.7484011,33.0436328 29.439,32.865 C27.139,31.534 23.039,28.853 21.424,25.845 C19.29,22.14 19.375,18.307 21.65,16.332 C21.9473999,16.0761118 22.2728039,15.8547029 22.62,15.672 C20.13,9.963 20.582,4.509 23.833,1.477 C22.044,1.737 20.313,2.059 18.747,2.377 C14.711,3.177 11.696,4.612 9.783,6.634 C8.20131144,8.3268654 6.97845018,10.3222212 6.188,12.5 C5.85614522,13.4674021 5.58396707,14.4542566 5.373,15.455 L5.273,15.881 C5.03242184,16.790144 4.70456527,17.6739167 4.294,18.52 C4.106,18.94 3.917,19.36 3.754,19.788 C3.65950369,20.0048357 3.60691104,20.2376006 3.599,20.474 C3.643,20.798 4.025,21.148 4.429,21.519 C5.25493667,22.1015488 5.78786015,23.0134644 5.89,24.019 C5.86993297,24.4934145 5.73617951,24.9560643 5.5,25.368 C4.24784001,28.0034832 2.71353526,30.4953873 0.924,32.8 C0.162,33.731 0,34.1 0,34.249 C0.184875894,34.4288287 0.385700599,34.5914967 0.6,34.735 Z M7.22,16.34 L7.32,15.907 C7.51314883,14.9905545 7.76024556,14.086314 8.06,13.199 C8.75567219,11.274706 9.83288063,9.51076444 11.227,8.013 C12.7595511,6.5356103 14.6468677,5.47795529 16.707,4.942 C17.0487245,4.83767844 17.4201459,4.92358921 17.6813533,5.16737057 C17.9425607,5.41115192 18.0538705,5.77576767 17.9733533,6.12387058 C17.8928362,6.47197349 17.6327245,6.75067845 17.291,6.855 C15.56399,7.29262258 13.9772482,8.16378169 12.681,9.386 C11.4731212,10.6862822 10.5398535,12.2167868 9.937,13.886 C9.66663271,14.6961058 9.44326107,15.5211451 9.268,16.357 L9.168,16.79 C9.09522503,17.1465268 8.8345303,17.4353832 8.48731032,17.5442217 C8.14009033,17.6530601 7.76115457,17.5647002 7.49788614,17.3135085 C7.23461771,17.0623168 7.12857416,16.6879446 7.221,16.336 L7.22,16.34 Z M7,19 C7.55228475,19 8,19.4477153 8,20 C8,20.5522847 7.55228475,21 7,21 C6.44771525,21 6,20.5522847 6,20 C6,19.4477153 6.44771525,19 7,19 Z" id="Shape"/><path d="M24.531,15.061 C26.5502905,14.774235 28.578686,15.5202338 29.931,17.047 C30.8513323,16.008769 32.0990245,15.3164692 33.467,15.085 C35.1585179,14.7786022 36.8989753,15.2354036 38.222,16.333 C40.497,18.308 40.582,22.141 38.433,25.872 C38.0720539,26.5211907 37.6400684,27.128251 37.145,27.682 C37.761,28.075 38.377,28.476 38.997,28.842 C42.497,26.771 49.77,22.048 52.437,17.096 C55.764,11.308 55.849,5.571 52.661,2.796 C50.8246779,1.31171316 48.4340019,0.698625748 46.11,1.116 C43.4482023,1.59960887 41.1508812,3.26767819 39.867,5.649 C39.6740541,5.93932926 39.348596,6.11381253 39,6.11381253 C38.651404,6.11381253 38.3259459,5.93932926 38.133,5.649 C36.9118234,3.40422041 34.789046,1.78875517 32.3,1.21 C31.5532483,1.10485891 30.8015934,1.03810448 30.048,1.01 C28.3227724,1.07001039 26.6659321,1.69941279 25.336,2.8 C22.543,5.225 22.254,9.985 24.531,15.061 Z M41.6,6.646 C42.5752383,4.77357938 44.3637439,3.45934916 46.442,3.088 C48.1759705,2.76345799 49.9655322,3.20546915 51.349,4.3 C51.6187355,4.53454486 51.7428532,4.89517543 51.6745992,5.24604568 C51.6063451,5.59691592 51.3560887,5.88472029 51.0180992,6.00104568 C50.6801096,6.11737106 50.3057355,6.04454486 50.036,5.81 C49.1014361,5.11390934 47.9177067,4.84182934 46.773,5.06 C45.2873983,5.34066761 44.016404,6.2953912 43.333,7.644 C43.0568576,8.1225547 42.4450547,8.28664232 41.9665,8.01049995 C41.4879453,7.73435759 41.3238577,7.12255473 41.6,6.644 L41.6,6.646 Z" id="Shape"/></g></g></svg>
