<?xml version="1.0" encoding="UTF-8"?>
<svg xmlns="http://www.w3.org/2000/svg" xmlns:xlink="http://www.w3.org/1999/xlink" width="512" height="512" viewBox="0 0 56 56" version="1.1"><!-- Generator: Sketch 51.3 (57544) - http://www.bohemiancoding.com/sketch --><title>006 - Confusion</title><desc>Created with Sketch.</desc><defs/><g id="Page-1" stroke="none" stroke-width="1" fill="none" fill-rule="evenodd"><g id="006---Confusion" fill="#000000" fill-rule="nonzero"><path d="M0.6,33.735 C0.861365685,33.9170729 1.13730073,34.0772824 1.425,34.214 C2.277,34.65 3.446,35.248 3.686,36.468 C3.82865982,37.2237273 3.73544627,38.0050454 3.419,38.706 C3.244,39.076 3.065,39.396 2.908,39.671 C2.859,39.758 2.808,39.854 2.758,39.941 C3.172,40.275 3.738,40.699 3.978,40.875 C4.19553158,41.03646 4.33824808,41.2792679 4.37349617,41.5478696 C4.40874425,41.8164714 4.33350751,42.0878809 4.165,42.3 C4.01691908,42.4930204 3.88797779,42.6999963 3.78,42.918 L3.987,43.036 C4.87220583,43.4166291 5.54814599,44.1633751 5.839,45.082 C5.98564963,45.7876772 5.95576498,46.5186489 5.752,47.21 C5.706,47.419 5.658,47.627 5.632,47.837 C5.5729723,48.4418114 5.65336419,49.0521056 5.867,49.621 C6.0847514,50.5454575 6.99364951,51.1329967 7.926,50.952 C10.8403482,50.2516858 13.7117997,49.3835725 16.526,48.352 L16.533,48.352 C17.575,47.998 18.52,47.668 19.263,47.408 C19.956,47.166 20.478,46.984 20.749,46.897 C24.906,45.582 25.749,44.081 25.725,43.052 C25.7120213,42.4997153 26.1492153,42.0414787 26.7015,42.0285 C27.2537847,42.0155213 27.7120213,42.4527153 27.725,43.005 C27.783,45.497 25.641,47.448 21.357,48.805 C21.098,48.888 20.593,49.064 19.923,49.298 L19.023,49.613 C20.6718801,51.4418871 21.8743544,53.6281107 22.536,56 L45.218,55.937 L45.151,55.837 C44.8630969,55.4195592 44.6041562,54.9828684 44.376,54.53 C43.879054,53.5216399 43.4640482,52.4749292 43.135,51.4 C42.5288621,49.3528819 42.1078369,47.2554538 41.877,45.133 C41.822,44.677 41.777,43.969 41.759,43.314 C40.4545887,42.4367012 39.7874312,40.8748303 40.0554556,39.3258612 C40.3234799,37.7768922 41.476649,36.5299997 43,36.142 L43,33.858 C41.2393149,33.4034067 40.0068148,31.8184116 40,30 L40,21.79 C39.9970346,20.7887313 40.3975025,19.8284735 41.111,19.126 C41.8691689,18.3987926 42.8804641,17.9949917 43.931,18 C46.2976333,18.0276118 48.4593669,16.6613806 49.4500679,14.5119093 C50.440769,12.362438 50.0753007,9.83140801 48.517,8.05 C47.0859864,6.41482899 44.8832499,5.68028704 42.7572276,6.12930064 C40.6312052,6.57831423 38.9136043,8.14082717 38.266,10.215 C37.8112998,11.6484105 36.5896502,12.704669 35.1055914,12.9475419 C33.6215325,13.1904147 32.1269095,12.5786864 31.239,11.365 C30.4726712,10.3228148 30.2552819,8.97529883 30.655,7.745 C31.5164566,5.05087491 33.178653,2.68333506 35.42,0.958 C33.0510371,0.264489989 30.5871746,-0.0493993438 28.12,0.028 C24.9646013,0.249830241 21.8296044,0.701697598 18.74,1.38 C14.704,2.18 11.689,3.615 9.776,5.637 C8.19656963,7.32915494 6.97605599,9.32354499 6.188,11.5 C5.85614522,12.4674021 5.58396707,13.4542566 5.373,14.455 L5.273,14.881 C5.03405513,15.788547 4.70821606,16.6709581 4.3,17.516 C4.111,17.937 3.923,18.357 3.76,18.786 C3.66364086,19.0015614 3.61063423,19.2339751 3.604,19.47 C3.649,19.796 4.03,20.146 4.434,20.517 C5.25904392,21.1003679 5.79170832,22.0118401 5.895,23.017 C5.87635428,23.4916102 5.74434083,23.9548574 5.51,24.368 C4.2548892,27.0038306 2.71756418,29.4957388 0.925,31.8 C0.163,32.727 0.005,33.1 -7.10542736e-15,33.247 C0.185061062,33.4272182 0.385859977,33.5905346 0.6,33.735 Z M7.22,15.341 L7.32,14.908 C7.51353582,13.9912196 7.76096528,13.0866495 8.061,12.199 C8.75637306,10.2745624 9.83361627,8.51056391 11.228,7.013 C12.7606426,5.53520641 14.6483921,4.47750189 16.709,3.942 C17.0532577,3.82944433 17.4314681,3.91183364 17.6977164,4.1573819 C17.9639648,4.40293017 18.0766292,4.7732514 17.9922433,5.12547458 C17.9078574,5.47769775 17.6396132,5.75676066 17.291,5.855 C15.564379,6.29286276 13.9780184,7.16400156 12.682,8.386 C11.4735935,9.68588251 10.5402565,11.2165007 9.938,12.886 C9.6689717,13.6919424 9.44627447,14.5126167 9.271,15.344 L9.171,15.789 C9.06595619,16.2417715 8.66279665,16.562476 8.198,16.563 C8.12157993,16.5631865 8.04539878,16.5544609 7.971,16.537 C7.43383317,16.4134377 7.09793771,15.8785097 7.22,15.341 Z M7,18 C7.55228475,18 8,18.4477153 8,19 C8,19.5522847 7.55228475,20 7,20 C6.44771525,20 6,19.5522847 6,19 C6,18.4477153 6.44771525,18 7,18 Z" id="Shape"/><circle id="Oval" cx="44" cy="40" r="2"/><path d="M32.564,8.353 C32.3604083,8.97517615 32.4695127,9.65735778 32.857,10.185 C33.2988294,10.7879554 34.0411623,11.092627 34.7791833,10.973911 C35.5172043,10.8551951 36.1265453,10.3330971 36.357,9.622 C37.2192561,6.85546741 39.5093271,4.77093206 42.3445181,4.17186623 C45.1797092,3.5728004 48.117295,4.55275037 50.025,6.734 C51.5480057,8.48558486 52.2406048,10.8094371 51.925,13.109 C51.410036,17.0817258 48.0057443,20.0418487 44,20 L43.968,20 C43.430601,19.9781767 42.9074665,20.1760219 42.519,20.548 C42.1857154,20.8751558 41.998581,21.3229802 42,21.79 L42,30 C42,31.1045695 42.8954305,32 44,32 C45.1045695,32 46,31.1045695 46,30 L46,24.65 C46.0001978,24.1860928 46.3194204,23.7832347 46.771,23.677 C52.4090258,22.3366939 56.283686,17.15866 55.9790392,11.3715238 C55.6743924,5.58438762 51.2774893,0.841785872 45.5299022,0.100842065 C39.7823151,-0.640101743 34.3263798,2.83233228 32.564,8.353 Z" id="Shape"/></g></g></svg>
