<svg height="512pt" viewBox="0 0 512 512" width="512pt" xmlns="http://www.w3.org/2000/svg"><path d="m49.480469 224.5 90 250.242188c8.34375 2.90625 17.164062 3.214843 25.414062 1.203124 5.804688 9.546876 15.144531 16.96875 26.789063 20.085938 11.644531 3.121094 23.441406 1.367188 33.242187-4 8.078125 7.71875 19.019531 12.46875 31.074219 12.46875s22.996094-4.75 31.074219-12.46875c9.800781 5.363281 21.597656 7.121094 33.242187 4 11.644532-3.117188 20.984375-10.539062 26.789063-20.085938 8.25 2.011719 17.070312 1.703126 25.414062-1.203124l90-250.242188zm0 0" fill="#1b1b1b"/><path d="m504.5 256c0-12.054688-4.75-22.996094-12.46875-31.074219 5.363281-9.800781 7.121094-21.597656 4-33.242187-3.117188-11.644532-10.539062-20.980469-20.085938-26.789063 2.648438-10.855469 1.289063-22.703125-4.738281-33.144531-6.027343-10.441406-15.609375-17.539062-26.335937-20.675781-.253906-11.171875-4.632813-22.265625-13.15625-30.789063-8.523438-8.527344-19.617188-12.902344-30.789063-13.15625-3.136719-10.726562-10.238281-20.308594-20.675781-26.335937-10.441406-6.027344-22.289062-7.386719-33.148438-4.738281-5.804687-9.546876-15.140624-16.96875-26.785156-20.089844-9.132812-2.445313-18.351562-1.882813-26.636718 1.058594l170.820312 308.976562-92.832031 104.96875-7 27c1.433593 6.054688 4.09375 11.78125 7.851562 16.773438 2.632813-.917969 5.222657-2.089844 7.730469-3.535157 10.441406-6.027343 17.539062-15.609375 20.675781-26.335937 11.171875-.253906 22.265625-4.632813 30.789063-13.15625 8.523437-8.523438 12.902344-19.617188 13.15625-30.789063 10.722656-3.136719 20.308594-10.238281 26.335937-20.675781 6.027344-10.441406 7.382813-22.289062 4.738281-33.148438 9.546876-5.804687 16.96875-15.140624 20.085938-26.785156 3.121094-11.644531 1.363281-23.441406-4-33.242187 7.71875-8.078125 12.46875-19.019531 12.46875-31.074219zm0 0" fill="#353535"/><path d="m401.714844 431.714844c8.527344-8.523438 12.902344-19.617188 13.15625-30.789063 10.726562-3.136719 20.308594-10.234375 26.335937-20.675781 6.027344-10.441406 7.386719-22.289062 4.738281-33.144531 9.546876-5.808594 16.96875-15.144531 20.089844-26.789063 3.117188-11.644531 1.363282-23.441406-4.003906-33.242187 7.71875-8.078125 12.46875-19.019531 12.46875-31.074219s-4.75-22.996094-12.46875-31.074219c5.363281-9.800781 7.121094-21.597656 4-33.242187-3.117188-11.644532-10.539062-20.980469-20.085938-26.789063 2.648438-10.855469 1.289063-22.703125-4.738281-33.144531-6.027343-10.441406-15.609375-17.539062-26.335937-20.675781-.253906-11.171875-4.632813-22.265625-13.15625-30.789063-8.523438-8.527344-19.617188-12.902344-30.789063-13.15625-3.136719-10.726562-10.238281-20.308594-20.675781-26.335937-10.441406-6.027344-22.289062-7.386719-33.148438-4.738281-5.234374-8.609376-13.34375-15.476563-23.421874-19.03125-2.28125.808593-4.492188 1.785156-6.605469 2.945312-8.078125-7.71875-19.019531-12.46875-31.074219-12.46875s-22.996094 4.75-31.074219 12.46875c-9.800781-5.363281-21.597656-7.121094-33.242187-4-11.644532 3.117188-20.980469 10.539062-26.789063 20.085938-10.855469-2.648438-22.703125-1.289063-33.144531 4.738281-10.441406 6.027343-17.539062 15.609375-20.675781 26.335937-11.171875.253906-22.265625 4.632813-30.789063 13.15625-8.527344 8.523438-12.902344 19.617188-13.15625 30.789063-10.726562 3.136719-20.308594 10.238281-26.335937 20.675781-6.027344 10.441406-7.386719 22.289062-4.738281 33.148438-9.546876 5.804687-16.96875 15.140624-20.085938 26.785156-3.121094 11.644531-1.363281 23.441406 4 33.242187-7.71875 8.078125-12.46875 19.019531-12.46875 31.074219s4.75 22.996094 12.46875 31.074219c-5.363281 9.800781-7.121094 21.597656-4 33.242187 3.117188 11.644532 10.539062 20.980469 20.085938 26.789063-2.648438 10.855469-1.289063 22.703125 4.738281 33.144531 6.027343 10.441406 15.609375 17.539062 26.335937 20.675781.253906 11.171875 4.628906 22.265625 13.15625 30.789063 8.523438 8.527344 19.617188 12.902344 30.789063 13.15625 3.136719 10.726562 10.234375 20.308594 20.675781 26.335937 2.507812 1.449219 5.09375 2.617188 7.730469 3.535157 9.265625-12.308594 11.976562-29.054688 5.652343-44.320313-3.613281-8.722656-9.65625-15.699219-17.015624-20.484375 4.96875-7.234375 7.882812-15.996094 7.882812-25.4375s-2.914062-18.199219-7.882812-25.4375c7.359374-4.785156 13.402343-11.761719 17.015624-20.484375 3.613282-8.722656 4.273438-17.929687 2.453126-26.515625 8.632812-1.605469 16.882812-5.738281 23.5625-12.414062 6.675781-6.675782 10.808593-14.929688 12.410156-23.5625 8.589844 1.824218 17.796875 1.160156 26.519531-2.449219 8.722656-3.613281 15.699219-9.660157 20.484375-17.019531 7.238281 4.96875 15.996094 7.882812 25.4375 7.882812s18.199219-2.914062 25.4375-7.882812c4.785156 7.359374 11.761719 13.40625 20.484375 17.019531 8.722656 3.609375 17.929687 4.269531 26.519531 2.449219 1.601563 8.632812 5.734375 16.886718 12.410156 23.5625 6.675782 6.675781 14.929688 10.808593 23.5625 12.414062-1.820312 8.585938-1.160156 17.792969 2.453126 26.515625 3.613281 8.722656 9.65625 15.699219 17.015624 20.484375-4.96875 7.238281-7.882812 15.996094-7.882812 25.4375s2.914062 18.199219 7.882812 25.4375c-7.359374 4.785156-13.402343 11.761719-17.015624 20.484375-3.761719 9.074219-4.304688 18.667969-2.199219 27.546875 2.796875-4.023438 4.898437-8.453125 6.257812-13.097656 11.171875-.253906 22.265625-4.628906 30.789063-13.15625zm0 0" fill="#4f4f4f"/><path d="m512 256c0-11.785156-3.898438-23.050781-11.078125-32.242188 4.554687-10.738281 5.40625-22.628906 2.355469-34.015624-3.050782-11.382813-9.734375-21.257813-19.046875-28.277344 1.621093-11.550782-.636719-23.257813-6.527344-33.464844-5.894531-10.207031-14.90625-18.011719-25.71875-22.386719-1.425781-11.574219-6.632813-22.300781-14.964844-30.632812-8.335937-8.332031-19.058593-13.542969-30.636719-14.964844-4.371093-10.8125-12.175781-19.828125-22.382812-25.71875-10.082031-5.820313-21.960938-8.132813-33.464844-6.523437-7.019531-9.3125-16.894531-16-28.277344-19.050782-11.261718-3.015625-23.332031-2.152344-34.011718 2.359375-9.191406-7.179687-20.460938-11.082031-32.246094-11.082031s-23.054688 3.902344-32.246094 11.082031c-10.679687-4.511719-22.75-5.375-34.011718-2.359375-11.386719 3.050782-21.257813 9.734375-28.277344 19.050782-11.503906-1.605469-23.378906.703124-33.464844 6.523437-10.207031 5.894531-18.011719 14.90625-22.386719 25.71875-11.574219 1.421875-22.300781 6.632813-30.632812 14.964844s-13.542969 19.058593-14.964844 30.632812c-10.8125 4.375-19.828125 12.179688-25.71875 22.386719-5.894531 10.207031-8.148437 21.914062-6.527344 33.464844-9.3125 7.019531-15.996093 16.894531-19.046875 28.277344-3.050781 11.386718-2.195312 23.277343 2.355469 34.015624-7.179687 9.191407-11.078125 20.457032-11.078125 32.242188s3.898438 23.050781 11.078125 32.242188c-4.554687 10.738281-5.40625 22.628906-2.355469 34.015624 3.050782 11.382813 9.734375 21.257813 19.046875 28.277344-1.621093 11.550782.636719 23.257813 6.527344 33.464844 5.894531 10.207031 14.90625 18.011719 25.71875 22.386719 1.425781 11.574219 6.632813 22.300781 14.964844 30.632812 8.335937 8.332031 19.058593 13.542969 30.636719 14.964844 4.371093 10.816406 12.179687 19.828125 22.382812 25.71875 2.820312 1.628906 5.785156 2.972656 8.835938 4.039063.171874.066406.335937.128906.507812.179687 7.722656 2.617187 16.011719 3.4375 24.121094 2.304687 7.019531 9.316407 16.894531 16 28.277344 19.050782 11.261718 3.019531 23.332031 2.152344 34.011718-2.355469 9.191406 7.175781 20.460938 11.078125 32.246094 11.078125s23.054688-3.902344 32.246094-11.082031c10.679687 4.511719 22.75 5.375 34.011718 2.359375 11.382813-3.050782 21.257813-9.734375 28.277344-19.050782 8.109375 1.132813 16.402344.308594 24.125-2.308593.167969-.050781.332032-.113281.5-.175781 3.054688-1.066407 6.019532-2.414063 8.839844-4.039063 10.207031-5.894531 18.011719-14.90625 22.386719-25.71875 11.574219-1.425781 22.300781-6.632813 30.632812-14.964844 8.332031-8.335937 13.542969-19.058593 14.964844-30.636719 10.816406-4.371093 19.828125-12.179687 25.71875-22.382812 5.894531-10.207031 8.148437-21.914062 6.527344-33.464844 9.3125-7.019531 15.996093-16.894531 19.046875-28.277344 3.050781-11.386718 2.199218-23.277343-2.355469-34.015624 7.179687-9.191407 11.078125-20.457032 11.078125-32.242188zm-26.546875 34.675781c4.65625 8.507813 5.839844 18.34375 3.335937 27.699219-2.507812 9.355469-8.453124 17.28125-16.738281 22.320312-2.792969 1.699219-4.164062 5.007813-3.390625 8.1875 2.296875 9.421876.894532 19.230469-3.949218 27.617188-4.839844 8.386719-12.636719 14.503906-21.945313 17.226562-3.136719.917969-5.316406 3.761719-5.394531 7.027344-.21875 9.699219-4.109375 18.8125-10.960938 25.65625-6.84375 6.851563-15.957031 10.742188-25.65625 10.960938-3.265625.074218-6.109375 2.257812-7.027344 5.394531-2.722656 9.3125-8.839843 17.105469-17.226562 21.945313-.363281.210937-.730469.40625-1.101562.601562-5.21875-9.8125-5.910157-21.621094-1.605469-32.019531 2.914062-7.03125 7.816406-12.933594 14.175781-17.066407 1.695312-1.101562 2.875-2.84375 3.269531-4.824218.394531-1.984375-.027343-4.042969-1.171875-5.710938-4.296875-6.253906-6.566406-13.582031-6.566406-21.191406 0-7.605469 2.273438-14.9375 6.566406-21.191406 1.144532-1.667969 1.566406-3.726563 1.171875-5.707032-.394531-1.984374-1.570312-3.722656-3.269531-4.824218-6.359375-4.136719-11.261719-10.039063-14.175781-17.066406-2.910157-7.03125-3.617188-14.671876-2.042969-22.09375.421875-1.976563.023438-4.039063-1.101562-5.722657-1.121094-1.679687-2.875-2.835937-4.863282-3.207031-7.460937-1.386719-14.25-4.960938-19.628906-10.34375-5.382812-5.378906-8.957031-12.164062-10.34375-19.625-.367188-1.988281-1.527344-3.746094-3.207031-4.867188-1.683594-1.125-3.746094-1.523437-5.722657-1.101562-7.421874 1.574219-15.0625.867188-22.09375-2.042969-7.027343-2.910156-12.929687-7.8125-17.0625-14.175781-1.105468-1.695312-2.84375-2.875-4.828124-3.269531-1.976563-.394531-4.039063.027343-5.707032 1.171875-6.253906 4.296875-13.582031 6.566406-21.191406 6.566406s-14.9375-2.269531-21.191406-6.566406c-1.667969-1.144532-3.726563-1.566406-5.707032-1.171875-1.984374.394531-3.726562 1.574219-4.828124 3.269531-4.132813 6.359375-10.035157 11.265625-17.0625 14.175781-7.03125 2.910157-14.671876 3.617188-22.09375 2.042969-1.972657-.417969-4.039063-.023438-5.722657 1.101562-1.679687 1.121094-2.839843 2.878907-3.207031 4.867188-1.386719 7.460938-4.960938 14.246094-10.34375 19.625-5.378906 5.382812-12.167969 8.957031-19.628906 10.34375-1.988282.371094-3.742188 1.527344-4.863282 3.207031-1.125 1.683594-1.523437 3.746094-1.101562 5.726563.636719 2.992187.898438 6.074218.785156 9.15625-.15625 4.136718 3.074219 7.621094 7.214844 7.773437 4.132812.136719 7.621094-3.074219 7.773438-7.214843.070312-1.902344.039062-3.804688-.097657-5.695313 7.707031-2.554687 14.703125-6.867187 20.523438-12.6875 5.820312-5.820313 10.132812-12.816406 12.6875-20.515625 8.089843.574219 16.207031-.722656 23.8125-3.871094 7.601562-3.148437 14.265625-7.964844 19.570312-14.101562 7.253907 3.636718 15.25 5.535156 23.480469 5.535156s16.226562-1.898438 23.480469-5.535156c5.308593 6.136718 11.96875 10.949218 19.570312 14.097656 7.605469 3.152344 15.722657 4.457031 23.8125 3.871094 2.554688 7.703125 6.867188 14.699218 12.6875 20.519531 5.816407 5.816406 12.816407 10.128906 20.515625 12.6875-.585937 8.089844.722656 16.207031 3.871094 23.808594 3.148438 7.605469 7.964844 14.265625 14.101562 19.574219-3.640624 7.253906-5.535156 15.25-5.535156 23.480468 0 8.226563 1.894532 16.222656 5.535156 23.476563-6.136718 5.308593-10.953124 11.972656-14.101562 19.574219-5.625 13.582031-5.175781 28.886718.835938 42.027343-3.96875.320313-7.992188.027344-11.890626-.921875-3.175781-.773437-6.488281.597656-8.1875 3.390625-5.039062 8.289063-12.964843 14.230469-22.320312 16.738281-9.28125 2.488282-19.289062 1.269532-27.699219-3.335937-2.867187-1.566406-6.417969-1.101563-8.78125 1.15625-7.015625 6.699219-16.210937 10.390625-25.894531 10.390625s-18.878906-3.691406-25.894531-10.390625c-1.429688-1.367187-3.296875-2.078125-5.183594-2.078125-1.226563 0-2.46875.300781-3.597656.921875-8.410157 4.601563-18.417969 5.820313-27.699219 3.335937-9.355469-2.507812-17.28125-8.453124-22.320312-16.738281-1.699219-2.792969-5.019532-4.167969-8.1875-3.390625-3.898438.949219-7.921876 1.242188-11.890626.917969 6.015626-13.140625 6.464844-28.441406.835938-42.027344-3.148438-7.601562-7.964844-14.265625-14.101562-19.574219 3.640624-7.25 5.535156-15.25 5.535156-23.476562 0-8.230469-1.894532-16.230469-5.535156-23.484375 1.828124-1.589844 3.554687-3.304687 5.152343-5.140625 2.726563-3.117188 2.402344-7.855469-.714843-10.582031-3.121094-2.722657-7.859376-2.402344-10.582032.71875-2.28125 2.609375-4.898437 4.882812-7.789062 6.761719-1.695313 1.101562-2.875 2.84375-3.269532 4.824218-.394531 1.984375.027344 4.042969 1.175782 5.710938 4.292968 6.253906 6.5625 13.582031 6.5625 21.191406 0 7.605469-2.269532 14.9375-6.5625 21.191406-1.148438 1.667969-1.570313 3.726563-1.175782 5.707032.394532 1.984374 1.574219 3.722656 3.269532 4.824218 6.363281 4.136719 11.265625 10.039063 14.175781 17.066406 4.308594 10.402344 3.617187 22.207032-1.605469 32.019532-.367187-.195313-.738281-.390625-1.101562-.597656-8.382813-4.84375-14.503906-12.636719-17.226563-21.945313-.917969-3.136719-3.761719-5.320313-7.027343-5.394531-9.695313-.222656-18.808594-4.113282-25.65625-10.960938-6.847657-6.847656-10.738282-15.960937-10.960938-25.65625-.074219-3.269531-2.257812-6.109375-5.394531-7.027344-9.308594-2.722656-17.101563-8.84375-21.945313-17.230468-4.84375-8.386719-6.242187-18.191406-3.945312-27.617188.773437-3.175781-.597656-6.484375-3.390625-8.183594-8.289063-5.042968-14.230469-12.96875-16.738281-22.324218-2.507813-9.351563-1.320313-19.1875 3.335937-27.695313 1.566406-2.867187 1.101563-6.421875-1.15625-8.785156-6.699219-7.011719-10.390625-16.207031-10.390625-25.890625s3.691406-18.878906 10.390625-25.894531c2.257813-2.363281 2.726563-5.914063 1.15625-8.78125-4.65625-8.507813-5.839844-18.34375-3.335937-27.699219 2.507812-9.355469 8.453124-17.28125 16.738281-22.320312 2.792969-1.699219 4.164062-5.007813 3.390625-8.1875-2.296875-9.421876-.894532-19.230469 3.949218-27.617188 4.839844-8.386719 12.636719-14.503906 21.945313-17.226562 3.136719-.917969 5.316406-3.761719 5.394531-7.027344.21875-9.699219 4.109375-18.8125 10.960938-25.65625 6.84375-6.851563 15.957031-10.742188 25.65625-10.960938 3.265625-.074218 6.109375-2.257812 7.027344-5.394531 2.722656-9.3125 8.839843-17.105469 17.226562-21.945313 8.304688-4.796874 18.316406-6.214843 27.617188-3.949218 3.175781.773437 6.488281-.597656 8.1875-3.390625 5.039062-8.285157 12.96875-14.230469 22.320312-16.738281 9.28125-2.484376 19.292969-1.265626 27.699219 3.335937 2.863281 1.566406 6.417969 1.101563 8.78125-1.15625 7.015625-6.699219 16.210937-10.390625 25.894531-10.390625s18.878906 3.691406 25.894531 10.390625c2.363281 2.257813 5.914063 2.726563 8.78125 1.15625 8.40625-4.601563 18.417969-5.820313 27.699219-3.335937 9.355469 2.507812 17.28125 8.453124 22.320312 16.738281 1.699219 2.796875 5.019532 4.164062 8.1875 3.390625 9.296876-2.265625 19.3125-.847656 27.617188 3.949218 8.386719 4.839844 14.503906 12.636719 17.226562 21.945313.917969 3.136719 3.761719 5.316406 7.027344 5.394531 9.699219.21875 18.8125 4.109375 25.65625 10.960938 6.851563 6.84375 10.742188 15.957031 10.960938 25.65625.074218 3.265625 2.257812 6.109375 5.394531 7.027344 9.3125 2.722656 17.105469 8.839843 21.945313 17.226562 4.84375 8.386719 6.246093 18.195312 3.949218 27.617188-.773437 3.179687.597656 6.488281 3.390625 8.1875 8.285157 5.039062 14.230469 12.96875 16.738281 22.320312 2.503907 9.355469 1.320313 19.191406-3.335937 27.699219-1.570313 2.867187-1.101563 6.417969 1.15625 8.78125 6.699219 7.015625 10.390625 16.210937 10.390625 25.894531s-3.691406 18.878906-10.390625 25.894531c-2.257813 2.363281-2.726563 5.914063-1.15625 8.78125zm0 0"/></svg>